<mxfile host="65bd71144e">
    <diagram id="Q5ws-C-5_EBzL0EyjnGI" name="Page-1">
        <mxGraphModel dx="484" dy="691" grid="1" gridSize="10" guides="1" tooltips="1" connect="1" arrows="1" fold="1" page="1" pageScale="1" pageWidth="850" pageHeight="1100" math="0" shadow="0">
            <root>
                <mxCell id="0"/>
                <mxCell id="1" parent="0"/>
                <mxCell id="2" value="" style="rounded=1;whiteSpace=wrap;html=1;fontColor=light-dark(#ffffff, #ededed);" vertex="1" parent="1">
                    <mxGeometry x="170" y="230" width="340" height="230" as="geometry"/>
                </mxCell>
                <mxCell id="3" value="" style="rounded=1;whiteSpace=wrap;html=1;fillColor=#3333FF;" vertex="1" parent="1">
                    <mxGeometry x="240" y="270" width="220" height="40" as="geometry"/>
                </mxCell>
                <mxCell id="11" value="TextArea" style="text;html=1;align=center;verticalAlign=middle;whiteSpace=wrap;rounded=0;fontSize=19;fontStyle=1;fontColor=#FFFFFF;" vertex="1" parent="1">
                    <mxGeometry x="310" y="275" width="80" height="30" as="geometry"/>
                </mxCell>
                <mxCell id="12" value="" style="rounded=1;whiteSpace=wrap;html=1;labelBackgroundColor=none;fillColor=#0050ef;fontColor=#ffffff;strokeColor=#000000;glass=0;strokeWidth=2;perimeterSpacing=1;" vertex="1" parent="1">
                    <mxGeometry x="290" y="365" width="100" height="40" as="geometry"/>
                </mxCell>
                <mxCell id="10" value="Counter" style="text;html=1;align=center;verticalAlign=middle;whiteSpace=wrap;rounded=0;fontColor=light-dark(#ffffff, #ededed);fontStyle=1;fontSize=19;" vertex="1" parent="1">
                    <mxGeometry x="310" y="370" width="60" height="30" as="geometry"/>
                </mxCell>
            </root>
        </mxGraphModel>
    </diagram>
</mxfile>